<?xml version="1.0" encoding="iso-8859-1"?>
<!-- Generator: Adobe Illustrator 19.0.0, SVG Export Plug-In . SVG Version: 6.00 Build 0)  -->
<svg version="1.1" id="Capa_1" xmlns="http://www.w3.org/2000/svg" xmlns:xlink="http://www.w3.org/1999/xlink" x="0px" y="0px"
	 viewBox="0 0 307.5 307.5" style="enable-background:new 0 0 307.5 307.5;" xml:space="preserve">
<path d="M240.983,95.805l29.272-29.272c6.442-6.441,9.99-15.007,9.99-24.117c0-9.109-3.548-17.675-9.982-24.109l-0.388-0.388
	c-13.296-13.297-34.934-13.297-48.233,0l-77.886,77.887H0v51.463c0,83.972,68.316,152.287,152.288,152.287h2.925
	c83.972,0,152.287-68.315,152.287-152.287V95.805H240.983z M232.248,28.525c7.449-7.449,19.572-7.45,27.014-0.007l0.388,0.388
	c3.608,3.608,5.596,8.406,5.596,13.509c0,5.104-1.987,9.901-5.597,13.51l-39.88,39.88h-54.799L232.248,28.525z M15,110.805h113.756
	l-21.878,21.878l10.606,10.607l32.485-32.485H292.5v36.463c0,13.24-1.89,26.046-5.404,38.169H156.809l40.995-40.994l-10.607-10.607
	l-51.602,51.602H20.404C16.89,173.314,15,160.508,15,147.268V110.805z M155.213,284.555h-2.925
	c-56.859,0-105.753-34.746-126.571-84.118h256.067C260.965,249.809,212.071,284.555,155.213,284.555z"/>
<g>
</g>
<g>
</g>
<g>
</g>
<g>
</g>
<g>
</g>
<g>
</g>
<g>
</g>
<g>
</g>
<g>
</g>
<g>
</g>
<g>
</g>
<g>
</g>
<g>
</g>
<g>
</g>
<g>
</g>
</svg>
