<?xml version="1.0" encoding="iso-8859-1"?>
<!-- Generator: Adobe Illustrator 19.0.0, SVG Export Plug-In . SVG Version: 6.00 Build 0)  -->
<svg version="1.1" id="Layer_1" xmlns="http://www.w3.org/2000/svg" xmlns:xlink="http://www.w3.org/1999/xlink" x="0px" y="0px"
	 viewBox="0 0 305.189 305.189" style="enable-background:new 0 0 305.189 305.189;" xml:space="preserve">
<g>
	<g>
		<path d="M289.637,188.952c-11.114-11.115-29.352-11.271-40.656-0.352l-26.721,25.813c-0.039,0.037-0.077,0.075-0.114,0.112
			c-10.102,10.113-23.538,15.682-37.833,15.682h-6.205c0.041-0.35,0.069-0.705,0.069-1.066v-3.549l0.692-0.303
			c0.234-0.102,0.464-0.214,0.688-0.336c15.112-8.207,21.179-26.807,13.811-42.345c-3.175-6.696-8.585-12.086-15.192-15.284v-58.747
			c0.901,0.038,1.8,0.063,2.699,0.063c19.606,0,38.459-8.988,50.717-24.617c14.122-18.005,17.599-42.408,9.074-63.685
			c-1.198-2.991-3.904-5.113-7.094-5.564c-20.524-2.904-41.185,4.335-55.395,19.058V9c0-4.971-4.029-9-9-9s-9,4.029-9,9v69.531
			c-1.79-2.956-3.756-5.826-5.916-8.58C135.117,45.543,104.11,33.08,73.339,37.434c-3.19,0.451-5.896,2.573-7.094,5.564
			c-11.558,28.847-6.845,61.931,12.299,86.339c16.619,21.189,42.175,33.373,68.758,33.373c4.039,0,8.105-0.282,12.164-0.856
			c0.017-0.002,0.032-0.008,0.049-0.01c0.222-0.032,0.442-0.074,0.662-0.124v2.63c-4.078,0.497-8.066,1.755-11.718,3.768
			l-59.868,28.619l-29.054-0.025c-14.764-0.026-28.824,6.293-38.632,17.301c-8.929,10.021-13.847,22.933-13.847,36.355v28.805
			c0,4.49,3.31,8.293,7.757,8.914l112.091,15.634c7.032,0.981,14.061,1.468,21.06,1.468c24.17,0,47.918-5.813,69.653-17.162
			c7.19-3.753,14.164-8.146,20.728-13.055c14.187-10.609,27.828-22.243,40.544-34.579l10.432-10.12
			c5.62-5.452,8.748-12.766,8.808-20.596C298.19,201.849,295.174,194.488,289.637,188.952z M188.047,49.869
			c9.054-11.543,23.091-18.061,37.623-17.714c3.79,14.016,0.813,29.216-8.24,40.76c-6.391,8.148-15.271,13.773-25.049,16.266
			l23.043-29.38c3.068-3.911,2.384-9.568-1.527-12.636c-3.911-3.068-9.569-2.383-12.636,1.527l-23.044,29.381
			C178.31,67.986,181.656,58.017,188.047,49.869z M154.167,133.212l-39.721-50.644c-3.067-3.911-8.724-4.595-12.636-1.527
			c-3.911,3.067-4.595,8.725-1.527,12.636l39.72,50.643c-18.42-1.95-35.635-11.221-47.296-26.089
			c-14.093-17.97-18.329-41.869-11.544-63.516c22.643-1.428,44.842,8.376,58.935,26.345
			C151.76,95.929,156.664,114.858,154.167,133.212z M276.79,217.354l-10.432,10.12c-12.167,11.802-25.217,22.933-38.791,33.083
			c-5.793,4.333-11.942,8.207-18.278,11.514c-24.687,12.891-52.313,17.67-79.896,13.823L25.058,271.342v-20.973
			c0-9.001,3.298-17.66,9.287-24.381c6.385-7.167,15.55-11.275,25.149-11.275c0.009,0,0.019,0,0.028,0l31.098,0.027
			c0.002,0,0.005,0,0.008,0c1.343,0,2.669-0.301,3.881-0.88l61.967-29.622c0.185-0.088,0.366-0.183,0.544-0.284
			c3.518-1.986,7.576-2.409,11.428-1.188c3.851,1.221,6.925,3.904,8.656,7.554c3.226,6.802,0.657,14.925-5.841,18.65l-50.282,21.992
			c-3.903,1.707-6.075,5.917-5.203,10.088c0.872,4.171,4.549,7.158,8.81,7.158h59.726c19.079,0,37.014-7.423,50.51-20.903
			l26.664-25.758c4.289-4.142,11.207-4.083,15.422,0.134c2.1,2.1,3.244,4.892,3.222,7.862
			C280.109,212.512,278.922,215.287,276.79,217.354z"/>
	</g>
</g>
<g>
</g>
<g>
</g>
<g>
</g>
<g>
</g>
<g>
</g>
<g>
</g>
<g>
</g>
<g>
</g>
<g>
</g>
<g>
</g>
<g>
</g>
<g>
</g>
<g>
</g>
<g>
</g>
<g>
</g>
</svg>
